<svg xmlns="http://www.w3.org/2000/svg" viewBox="614 114 16 16"><defs><style>.a{fill:#aab8c2;fill-rule:evenodd;}</style></defs><path class="a" d="M14,16H2a2.006,2.006,0,0,1-2-2V4A1.974,1.974,0,0,1,.6,2.6,1.974,1.974,0,0,1,2,2H4V1A.945.945,0,0,1,5,0,.945.945,0,0,1,6,1V2h4V1a.945.945,0,0,1,1-1,.945.945,0,0,1,1,1V2h2a2.006,2.006,0,0,1,2,2V14a2.051,2.051,0,0,1-2,2ZM14,4H12V5a.945.945,0,0,1-1,1,.945.945,0,0,1-1-1V4H6V5A.945.945,0,0,1,5,6,.945.945,0,0,1,4,5V4H2V14H14V4Zm-3,8a.945.945,0,0,1-1-1,.945.945,0,0,1,1-1,.945.945,0,0,1,1,1,.945.945,0,0,1-1,1Zm0-3a.945.945,0,0,1-1-1,.945.945,0,0,1,1-1,.945.945,0,0,1,1,1,.945.945,0,0,1-1,1ZM8,12a.945.945,0,0,1-1-1,.945.945,0,0,1,1-1,.945.945,0,0,1,1,1,.945.945,0,0,1-1,1ZM8,9A.945.945,0,0,1,7,8,.945.945,0,0,1,8,7,.945.945,0,0,1,9,8,.945.945,0,0,1,8,9ZM5,12a.945.945,0,0,1-1-1,.945.945,0,0,1,1-1,.945.945,0,0,1,1,1,.945.945,0,0,1-1,1ZM5,9A.945.945,0,0,1,4,8,.945.945,0,0,1,5,7,.945.945,0,0,1,6,8,.945.945,0,0,1,5,9Z" transform="translate(614 114)"/></svg>