<svg xmlns="http://www.w3.org/2000/svg" viewBox="96 8.206 83.018 31.526"><defs><style>.a{fill:#fff;}</style></defs><path class="a" d="M398.033,251.636c-1.248,0-2.04,1.026-2.04,2.508,0,1.7.852,2.414,2.087,2.414.737,0,1.669-.307,1.669-.549a.188.188,0,0,0-.03-.1l-.234-.558a.124.124,0,0,0-.1-.072,3.325,3.325,0,0,1-1.184.307c-.877,0-1.026-.643-1.026-1.167h2.5c.179,0,.213-.055.213-.234C399.9,253.054,399.617,251.636,398.033,251.636Zm-.852,1.912c.026-.26.064-1.043.792-1.043.643,0,.673.66.673,1.043Zm6.664,2.581v.072c0,.179-.681.353-1.312.353-1.2,0-1.2-.941-1.2-1.8v-2.1h-.66c-.111,0-.132-.03-.132-.132v-.6c0-.1,0-.132.132-.132h.66v-1.175c0-.119,0-.149.149-.166l.822-.111h.119c.085,0,.094.047.094.158v1.3h1.06c.085,0,.158,0,.158.1a.262.262,0,0,1,0,.072l-.123.549c-.03.132-.055.141-.166.141h-.907v2.253c0,.3,0,.566.315.566a3.2,3.2,0,0,0,.737-.179.072.072,0,0,1,.072.055Zm6.328-4.229a1.389,1.389,0,0,1-.047.179l-1.277,4.258c-.038.119-.055.132-.179.132h-.728c-.123,0-.149-.055-.166-.149l-.456-2.368c-.055-.3-.1-.784-.119-1.043h0a7.577,7.577,0,0,1-.166,1.043l-.558,2.368c0,.094-.047.149-.166.149h-.792c-.123,0-.141,0-.179-.132l-1.116-4.258a.907.907,0,0,0-.047-.179c-.009-.047.064-.077.2-.094l.7-.085h.158c.064,0,.1.094.119.187l.4,2.014a15.688,15.688,0,0,1,.2,1.576h0a10.8,10.8,0,0,1,.179-1.452l.426-2.087c.03-.141.038-.149.179-.149h.83c.141,0,.149,0,.179.149l.426,2.087a10.978,10.978,0,0,1,.179,1.452h0a12.665,12.665,0,0,1,.2-1.576l.426-2.014c0-.094.055-.187.132-.187h.149l.634.085c.2.017.264.026.264.094Zm-3.773-4.446c.047.234.187.558.268.558a.592.592,0,0,0,.124-.038l.707-.29a.092.092,0,0,0,.085-.085,4.131,4.131,0,0,1-.166-1.209v-5.084c0-.158,0-.2-.094-.2s-.1.026-.132.026l-.784.158c-.111.026-.179.026-.179.166v1.912a1.278,1.278,0,0,0-.852-.281c-1.154,0-1.789.886-1.789,2.644,0,1.418.532,2.274,1.593,2.274a1.75,1.75,0,0,0,1.209-.554Zm-1.648-1.852c0-1.035.141-1.554.852-1.554a1.022,1.022,0,0,1,.635.187v2.555a.818.818,0,0,1-.69.328C404.931,247.084,404.752,246.637,404.752,245.6Zm-6.115,1.073v-3.207c0-.132.064-.141.179-.166l.784-.158c.03,0,.124-.03.149-.03s.077.038.077.2v2.981c0,.353.047.784.52.784a1.474,1.474,0,0,0,.822-.29v-3.3c0-.132.064-.141.179-.166l.784-.158c.03,0,.123-.03.158-.03s.064.038.064.2v2.908a3.74,3.74,0,0,0,.179,1.452c0,.047-.038.085-.1.1l-.707.234a.467.467,0,0,1-.141.03c-.119,0-.2-.179-.3-.549a2.04,2.04,0,0,1-1.427.549,1.221,1.221,0,0,1-1.214-1.4Zm-2.129,1.358c-1.2,0-1.2-.941-1.2-1.8v-2.1h-.647c-.111,0-.132-.026-.132-.132v-.6c0-.1,0-.132.132-.132h.66V242.1c0-.119,0-.149.149-.166l.822-.111h.123c.06,0,.094.047.094.158v1.3h1.06c.085,0,.158,0,.158.1a.259.259,0,0,1,0,.072l-.119.549c-.03.132-.055.141-.166.141h-.924V246.4c0,.3,0,.566.315.566a3.2,3.2,0,0,0,.737-.179.072.072,0,0,1,.072.055l.187.762v.072c.026.162-.669.336-1.3.336Zm16.739-3.1a3.761,3.761,0,0,0-.175-1.456c0-.047.038-.085.1-.1l.707-.234a.463.463,0,0,1,.14-.03c.123,0,.2.2.3.643a2.01,2.01,0,0,1,1.427-.643c.511,0,1.209.234,1.209,1.363v3.262c0,.1,0,.132-.132.132H415.9c-.111,0-.132-.03-.132-.132v-2.87c0-.353-.047-.784-.524-.784a1.277,1.277,0,0,0-.822.383v3.27c0,.1,0,.132-.132.132h-.924c-.111,0-.132-.03-.132-.132Zm-21.13,3.1a3.235,3.235,0,0,1-1.946-.558.82.82,0,0,1,.047-.149l.213-.617a.128.128,0,0,1,.1-.094,4,4,0,0,0,1.546.426.762.762,0,0,0,.852-.852c0-.83-.95-.911-1.9-1.49a1.494,1.494,0,0,1-.809-1.444,1.836,1.836,0,0,1,2.048-1.9,2.715,2.715,0,0,1,1.8.571.333.333,0,0,1-.047.141l-.307.613c-.03.055-.064.094-.1.094a3.07,3.07,0,0,0-1.3-.426c-.426,0-.877.166-.877.728,0,.707,1.09.852,1.912,1.444a1.856,1.856,0,0,1,.8,1.507,1.9,1.9,0,0,1-2.014,1.984Zm2.917,2.2v5.974c0,.166-.03.2-.2.2h-.613c-.132,0-.158,0-.213-.132l-1.7-3.177a4.76,4.76,0,0,1-.532-1.278h0c0,.119.03.6.03,1.026V256.2c0,.166-.038.2-.2.2h-.681c-.158,0-.2-.026-.2-.2v-5.983c0-.166.038-.2.2-.2h.762c.141,0,.158,0,.213.119l1.537,2.887a7.4,7.4,0,0,1,.549,1.35h0c0-.3-.03-.95-.03-1.209V250.21c0-.166.038-.2.2-.2h.715c.14,0,.179.03.179.2Zm30.826-3.351a.657.657,0,0,1,0,.124l-.179.707c-.038.149-.064.166-.2.166H422.4c-.158,0-.2-.03-.2-.2v-6.013c0-.166.038-.2.2-.2h.852c.158,0,.2.026.2.2v5.067h2.244C425.827,246.739,425.861,246.786,425.861,246.88Zm6.485-5.434a.266.266,0,0,1,0,.085l-.166.652a.109.109,0,0,1-.085.094,2.356,2.356,0,0,0-.652-.158c-.5,0-.524.307-.524.754v.383h1.065c.085,0,.158,0,.158.094a.319.319,0,0,1,0,.094l-.132.549c-.03.123-.085.132-.179.132h-.894v3.539c0,.166-.038.2-.2.2h-.792c-.158,0-.2-.03-.2-.2v-3.539h-.66c-.158,0-.2-.026-.2-.2v-.477c0-.166.038-.2.2-.2h.66v-.383c0-1.026.375-1.759,1.49-1.759C431.648,241.109,432.346,241.259,432.346,241.446ZM412.1,247.463a.191.191,0,0,0-.03-.1l-.234-.558a.123.123,0,0,0-.1-.077,3.318,3.318,0,0,1-1.184.307c-.877,0-1.026-.643-1.026-1.167h2.508c.179,0,.213-.055.213-.234,0-1.128-.281-2.555-1.865-2.555-1.248,0-2.04,1.026-2.04,2.508,0,1.7.852,2.414,2.087,2.414.767.013,1.695-.294,1.695-.537Zm-1.78-3.5c.643,0,.669.66.669,1.043h-1.465c.055-.251.094-1.039.822-1.039Zm25.916,1.678c0-1.128-.281-2.555-1.865-2.555-1.248,0-2.04,1.026-2.04,2.508,0,1.7.852,2.414,2.087,2.414.737,0,1.669-.307,1.669-.549a.187.187,0,0,0-.03-.1l-.234-.558a.124.124,0,0,0-.1-.077,3.313,3.313,0,0,1-1.184.307c-.877,0-1.026-.643-1.026-1.167h2.508c.2.013.243-.043.243-.221ZM433.517,245c.03-.26.064-1.043.792-1.043.643,0,.673.66.673,1.043Zm-5.715-1.622v4.352c0,.1,0,.132-.132.132h-.924c-.111,0-.132-.03-.132-.132v-3.607H425.9c-.111,0-.132-.026-.132-.132v-.6c0-.1,0-.132.132-.132h1.771c.141,0,.158.026.158.128Zm.166-1.507a.771.771,0,1,1-.762-.762.762.762,0,0,1,.792.762Zm-5.293,13.984a.252.252,0,0,1,.085.141.081.081,0,0,1-.047.085l-.792.426a.26.26,0,0,1-.111.038c-.038,0-.085-.055-.111-.094l-1.7-2.227h0v2.023c0,.1,0,.132-.132.132h-.924c-.111,0-.132-.026-.132-.132v-6.26c0-.128.064-.149.179-.166l.784-.158a.852.852,0,0,1,.149-.03c.055,0,.077.038.077.2v3.688l1.788-1.81a.285.285,0,0,1,.132-.094c.055,0,.094.047.166.1l.464.383a.128.128,0,0,1,.047.1c0,.038-.038.072-.085.119L421,253.8Zm-10.067-4.22c-1.277,0-2.023.958-2.023,2.461s.762,2.461,2.023,2.461,2.023-.958,2.023-2.461-.745-2.461-1.993-2.461Zm0,3.99c-.651,0-.762-.66-.762-1.529s.119-1.529.762-1.529.762.66.762,1.529-.081,1.529-.732,1.529Zm6.06-9.411v-2.1h-.66c-.111,0-.132-.026-.132-.132v-.6c0-.1,0-.132.132-.132h.66v-1.175c0-.119,0-.149.149-.166l.818-.111h.123c.06,0,.094.047.094.158v1.3h1.06c.085,0,.158,0,.158.1a.255.255,0,0,1,0,.072l-.119.549c-.03.132-.055.141-.166.141h-.924v2.253c0,.3,0,.566.315.566a3.206,3.206,0,0,0,.737-.179.072.072,0,0,1,.072.055l.187.762v.072c0,.179-.681.353-1.316.353-1.163,0-1.163-.933-1.163-1.793Zm-.485,5.638a.239.239,0,0,1,0,.094l-.29.784c0,.026-.038.085-.077.085a1.747,1.747,0,0,0-.426-.1c-.29,0-.588.315-.707.447v3.087c0,.1,0,.132-.132.132h-.924c-.111,0-.132-.026-.132-.132v-2.815a4.11,4.11,0,0,0-.243-1.405c0-.038.038-.064.085-.085l.707-.29a.617.617,0,0,1,.123-.038c.111,0,.3.426.345.737a1.52,1.52,0,0,1,1.154-.737c.272.021.545.115.545.238Zm-45.8-11.442c-.707,1.7-2.031,4.331-2.031,4.331.345-1.4,1.644-7.141,2.291-7C373.134,237.835,372.9,239.159,372.381,240.411Zm-3.117-8.436a16.719,16.719,0,0,0-16.011,16.791,15.075,15.075,0,0,0,.153,1.746,30.132,30.132,0,0,1,7.239-9.5h0a5.565,5.565,0,0,1,2.474-1.482h0a1.331,1.331,0,0,1,.162,0h0a1.6,1.6,0,0,1,1.073.4c1.912,1.776-.1,2.857-1.367,3.326a1.959,1.959,0,0,0-1.12,1.7,3.087,3.087,0,0,0,1.014,2.291,8.918,8.918,0,0,1,2.253,3.764,16.635,16.635,0,0,0,1.912-2.512c-.141-8.006,2.1-11.672,2.781-12.728.979-1.52,3.036-2.236,4.067-1.388,1.358,1.12.732,4.22-.2,6.2a67.046,67.046,0,0,1-3.8,7.3,23.119,23.119,0,0,0-.349,4.829q.047.3.106.634c.119.447.315.571.635.566.473-.1,1.141-.694,1.78-2.606.6-2.082,1.908-6.728,2.006-7.039s.583-2.176,2.163-1.605c1.163.426,1.3,1.746.9,2.917a39.226,39.226,0,0,0-1.163,4.684c-.026.162,0,.294.123.111.5-.852,1.942-3.211,2.368-3.756a1.976,1.976,0,0,1,2.487-.647c.979.52,1.277,1.861.771,3.2a27.366,27.366,0,0,0-1.082,3.747c-.064.324-.128.669-.187,1.009-.247,1.959.792,1,.792,1a35.217,35.217,0,0,0,4.842-7.444v-.119A15.962,15.962,0,0,0,369.263,231.975ZM379,256.963h0c-2.223-.281-2.5-1.5-2.419-2.393a16.923,16.923,0,0,1,.754-3.833c.043-.123.043-.23-.1,0a18.852,18.852,0,0,0-2.129,4.855s-.494,1.874-2.555.924a2.364,2.364,0,0,1-.984-1.6,4.262,4.262,0,0,1-1.861,1.827.992.992,0,0,1-.9.047c-1.048-.426-1.584-4.6-1.605-5.259a12.617,12.617,0,0,1-3.109,4.518s-3.662,3.249-7.95-2.1c0,0-.958-1.422.749-.852l.2.068c4.152,1.277,4.126-.852,4.114-1.341-.111-2.776-3.811-4.552-2.129-7.746a40.99,40.99,0,0,0-5.536,7.141c1.452,7.414,8.406,12.6,16.607,12.243,8.636-.375,15.534-6.762,15.99-14.87a32.583,32.583,0,0,1-4.118,7.239A3.062,3.062,0,0,1,379,256.946Z" transform="translate(-257.246 -223.751)"/></svg>